:SAMPLES-PER-SECOND 24
:FULLY-SPECIFIED
:DEGREES
119
root  -9.2186 39.5334 25.0623 -2.01855 16.1585 -11.5451
RightUpLeg  -4.90388 -10.1386 2.96089
RightLeg  31.4679 -7.21204 -4.97845
RightFoot  -9.16204 -0.254254 10.736
RightToes  -2.08645e-008 3.77894e-005 6.81332e-007
Spine  -2.58107 -5.57591 -14.9778
Spine1  6.07388 -9.24001 17.1935
HEad  -24.23 3.29604 4.55621
LeftShoulder1  4.83118 -10.2834 -29.008
LeftArm  0.686901 6.36986 -22.133
LeftForeArm  155.179 -70.3428 -150.892
LeftHand  -0.460665 -1.13388 8.34103
RightShoulder  3.46299 6.12524 30.052
RightArm  6.77662 -41.7067 16.4508
RightForeArm  121.185 79.7943 110.286
RightHand  -0.0855226 8.26952 -1.10842
LeftUpLeg  -19.5583 20.769 -0.690227
LeftLeg  22.7435 28.5439 12.8468
LeftFoot  -7.54376 -0.0719498 3.55314
LeftToes  1.24767e-006 1.47042e-008 1.32732e-009
120
root  -9.4449 38.6522 24.2876 2.2865 9.81451 -8.19873
RightUpLeg  -1.58637 -12.8508 1.4768
RightLeg  30.9 -7.13285 -4.83542
RightFoot  -16.6942 0.457538 12.4633
RightToes  -2.08645e-008 3.77894e-005 6.81332e-007
Spine  -2.29243 -4.38394 -13.6388
Spine1  5.51934 -7.35225 14.2075
HEad  -29.3127 5.29002 2.11026
LeftShoulder1  5.15031 -10.7147 -30.2135
LeftArm  -2.99769 1.71311 -17.5898
LeftForeArm  150.93 -72.0651 -147.352
LeftHand  -0.542189 -0.745909 10.3832
RightShoulder  3.32219 5.92284 29.3209
RightArm  3.55528 -40.4729 17.2364
RightForeArm  120.45 79.8075 109.985
RightHand  -0.258034 8.34042 -2.55429
LeftUpLeg  -27.5762 22.9939 -5.86208
LeftLeg  29.6874 32.5529 18.6568
LeftFoot  -9.23766 -0.0485008 5.64987
LeftToes  1.24767e-006 1.47042e-008 1.32732e-009
121
root  -9.53112 38.0718 23.3831 4.9693 0.606934 -6.49567
RightUpLeg  -2.76757 -8.69772 0.119678
RightLeg  26.8353 -6.63628 -3.86115
RightFoot  -23.4373 0.770691 8.90589
RightToes  -2.08645e-008 3.77894e-005 6.81332e-007
Spine  -2.27627 -2.0355 -10.7222
Spine1  7.25969 -4.44194 10.7519
HEad  -34.8234 7.52326 -0.41182
LeftShoulder1  5.70803 -11.4846 -32.0855
LeftArm  -7.37758 -1.25224 -14.7996
LeftForeArm  142.306 -75.1986 -138.571
LeftHand  -0.628933 -0.531115 12.4371
RightShoulder  3.31137 5.85965 29.4461
RightArm  -0.292307 -33.7314 20.7346
RightForeArm  100.979 80.4252 89.3931
RightHand  -0.568465 7.31004 -5.54692
LeftUpLeg  -34.3305 28.6553 -9.52078
LeftLeg  34.9295 34.529 23.3179
LeftFoot  -9.7291 -0.0356878 6.6294
LeftToes  1.24767e-006 1.47042e-008 1.32732e-009
122
root  -9.38537 38.1983 22.4901 5.72699 -9.6537 -5.59047
RightUpLeg  -7.32994 -0.514606 -1.23967
RightLeg  27.3687 -6.27115 -3.73641
RightFoot  -21.8379 0.400187 5.96511
RightToes  -2.08645e-008 3.77894e-005 6.81332e-007
Spine  -0.429751 -0.361045 -8.59401
Spine1  7.76878 -2.36599 8.20585
HEad  -36.6689 11.7489 -3.65948
LeftShoulder1  6.41823 -12.3052 -34.5854
LeftArm  -10.8172 2.63367 -15.1245
LeftForeArm  136.933 -76.8267 -132.098
LeftHand  -0.709963 -0.360681 14.421
RightShoulder  3.4705 6.1277 30.1247
RightArm  1.13216 -22.5964 23.9716
RightForeArm  81.1707 79.6855 64.6821
RightHand  -0.292765 8.14203 -2.88284
LeftUpLeg  -36.8377 37.5946 -12.6078
LeftLeg  32.7385 34.8346 21.8574
LeftFoot  -8.40056 -0.100541 5.88111
LeftToes  1.24767e-006 1.47042e-008 1.32732e-009
123
root  -9.02443 39.1907 22.0866 5.59564 -14.7884 -5.14265
RightUpLeg  -7.53878 2.23715 -2.77126
RightLeg  24.1001 -3.44915 -1.92677
RightFoot  -14.4882 0.0786017 6.73803
RightToes  -2.08645e-008 3.77894e-005 6.81332e-007
Spine  0.13301 -1.45231 -6.65913
Spine1  7.46056 -3.36688 7.33402
HEad  -32.6612 16.9101 -5.8514
LeftShoulder1  6.74991 -12.5823 -35.9227
LeftArm  -10.4878 10.414 -20.4856
LeftForeArm  141.643 -75.9915 -136.067
LeftHand  -0.722255 -0.0614494 15.4407
RightShoulder  3.55732 6.36887 30.1206
RightArm  6.68424 -16.1419 28.0124
RightForeArm  90.3549 80.2252 70.4258
RightHand  -0.226112 8.94077 -2.221
LeftUpLeg  -30.3542 36.5344 -8.97471
LeftLeg  24.1766 40.4973 14.7006
LeftFoot  -3.22306 -0.340841 5.00711
LeftToes  1.24767e-006 1.47042e-008 1.32732e-009
124
root  -8.75824 40.339 22.0382 5.95795 -15.506 -4.71629
RightUpLeg  -4.1304 -0.523962 -3.8086
RightLeg  14.0905 -0.434967 -0.743282
RightFoot  -6.81254 -0.347627 7.74496
RightToes  -2.08645e-008 3.77894e-005 6.81332e-007
Spine  -1.67829 -2.60226 -5.47477
Spine1  6.82669 -4.71886 8.43286
HEad  -25.8436 18.9536 -5.89582
LeftShoulder1  6.93468 -12.7518 -36.6031
LeftArm  -5.74496 15.5542 -28.3694
LeftForeArm  150.134 -73.9549 -143.318
LeftHand  -0.654383 -0.310042 13.396
RightShoulder  3.48401 6.25944 29.7734
RightArm  11.2169 -19.668 30.9646
RightForeArm  133.562 79.6185 115.827
RightHand  0.167417 9.83509 0.861613
LeftUpLeg  -22.0481 22.3085 -0.506108
LeftLeg  17.6094 45.2043 7.58232
LeftFoot  4.79263 -0.430563 2.94303
LeftToes  1.24767e-006 1.47042e-008 1.32732e-009
125
root  -8.70739 40.9528 21.8189 6.92792 -17.8218 -3.85378
RightUpLeg  -5.02876 -0.419803 -4.05074
RightLeg  11.5456 -2.74467 -1.79376
RightFoot  -2.70985 -0.477281 6.11134
RightToes  -2.08645e-008 3.77894e-005 6.81332e-007
Spine  -4.11294 -1.70896 -4.25406
Spine1  6.70558 -3.46479 7.40518
HEad  -22.1979 18.1207 -4.87947
LeftShoulder1  6.98043 -12.8431 -36.6432
LeftArm  -0.00654766 17.0483 -34.6074
LeftForeArm  161.912 -71.4921 -150.04
LeftHand  -0.497272 -1.72422 8.31699
RightShoulder  3.7469 6.42308 31.8526
RightArm  14.0309 -25.0648 30.5035
RightForeArm  158.061 74.1124 144.229
RightHand  0.306742 10.5231 1.81515
LeftUpLeg  -22.6532 24.0474 -1.38642
LeftLeg  16.5423 21.5143 5.0006
LeftFoot  9.51038 0.650793 -3.7786
LeftToes  1.24767e-006 1.47042e-008 1.32732e-009
126
root  -8.60038 40.9161 21.3572 6.89716 -21.77 -3.34912
RightUpLeg  -8.91506 3.29739 -4.16405
RightLeg  20.7148 -6.76069 -3.02973
RightFoot  -3.81634 -0.428415 6.11249
RightToes  -2.08645e-008 3.77894e-005 6.81332e-007
Spine  -4.21423 -0.462362 -2.87077
Spine1  7.29903 -2.00639 6.45263
HEad  -23.0295 18.085 -5.32721
LeftShoulder1  6.82956 -12.6827 -36.1476
LeftArm  3.59272 16.6854 -38.6986
LeftForeArm  174.597 -67.8674 -156.593
LeftHand  -0.341672 -3.13842 4.89204
RightShoulder  3.98706 6.67531 33.2841
RightArm  16.2284 -25.061 30.4983
RightForeArm  166.198 69.9256 152.978
RightHand  0.185618 10.0488 0.980684
LeftUpLeg  -21.9451 17.6608 2.54692
LeftLeg  21.9407 8.11181 3.9114
LeftFoot  7.7821 1.31196 -8.06189
LeftToes  1.24767e-006 1.47042e-008 1.32732e-009
127
root  -8.44028 40.2582 20.6806 4.02216 -23.898 -2.62045
RightUpLeg  -8.13326 2.008 -4.42738
RightLeg  27.8407 -4.17396 -2.62234
RightFoot  -8.79434 -0.240198 8.07894
RightToes  -2.08645e-008 3.77894e-005 6.81332e-007
Spine  1.04844 -0.614821 -3.44468
Spine1  5.82248 -2.32229 7.144
HEad  -25.2942 19.6459 -6.73106
LeftShoulder1  6.61229 -12.4251 -35.4841
LeftArm  6.31945 14.8517 -40.4032
LeftForeArm  178.694 -63.5289 -161.119
LeftHand  -0.290565 -3.19589 4.17408
RightShoulder  3.96699 6.7197 32.917
RightArm  17.7696 -21.5228 32.6448
RightForeArm  168.716 67.9577 155.809
RightHand  0.179069 9.85183 0.951018
LeftUpLeg  -20.1458 7.20891 7.16049
LeftLeg  32.2131 10.0285 7.19306
LeftFoot  4.51876 0.55245 -4.17152
LeftToes  1.24767e-006 1.47042e-008 1.32732e-009
128
root  -8.2156 39.232 20.0283 0.977478 -24.4104 -1.74863
RightUpLeg  -6.07395 -0.0101733 -5.36863
RightLeg  30.1483 -1.98158 -1.48414
RightFoot  -15.9132 0.175098 7.39428
RightToes  -2.08645e-008 3.77894e-005 6.81332e-007
Spine  5.33271 -1.16711 -3.99287
Spine1  5.21592 -3.04873 8.02059
HEad  -27.4158 20.7357 -8.2018
LeftShoulder1  6.78061 -12.6151 -36.0234
LeftArm  8.7466 9.19278 -38.7717
LeftForeArm  174.366 -61.8852 -161.968
LeftHand  -0.342381 -2.73364 5.11757
RightShoulder  3.89949 6.61596 32.6493
RightArm  17.9193 -16.713 35.2224
RightForeArm  164.439 69.3319 153.602
RightHand  -0.0408415 9.72241 -0.712252
LeftUpLeg  -18.4072 -0.0999011 9.99534
LeftLeg  41.3738 14.3139 13.4675
LeftFoot  3.09009 0.509062 -3.93559
LeftToes  1.24767e-006 1.47042e-008 1.32732e-009
129
root  -7.90303 38.2489 19.5504 0.251953 -27.2904 -2.09554
RightUpLeg  -7.63044 2.42734 -4.86903
RightLeg  32.8163 -3.03156 -2.35929
RightFoot  -21.2203 0.31446 5.33073
RightToes  -2.08645e-008 3.77894e-005 6.81332e-007
Spine  5.24985 -0.793801 -1.41766
Spine1  7.56943 -2.1838 5.76706
HEad  -28.8873 21.3343 -9.50877
LeftShoulder1  7.39928 -13.2264 -38.1166
LeftArm  9.24571 1.19109 -35.4697
LeftForeArm  171.903 -65.3221 -158.855
LeftHand  -0.456542 -2.74513 6.73533
RightShoulder  3.92835 6.58308 33.0619
RightArm  16.8585 -10.8337 36.5826
RightForeArm  152.832 74.7329 141.705
RightHand  -0.477869 9.36019 -4.14611
LeftUpLeg  -15.3744 -2.1345 13.1324
LeftLeg  43.0591 12.8636 12.9098
LeftFoot  -3.34778 1.0494 -15.2918
LeftToes  1.24767e-006 1.47042e-008 1.32732e-009
130
root  -7.53129 37.7493 19.3583 1.79834 -30.5382 -2.91226
RightUpLeg  -11.0407 6.52738 -4.18176
RightLeg  35.2105 -4.56369 -3.70797
RightFoot  -22.9927 0.397949 5.42602
RightToes  -2.08645e-008 3.77894e-005 6.81332e-007
Spine  1.81514 -0.593907 0.181688
Spine1  10.9894 -1.99994 4.54413
HEad  -29.824 23.147 -10.7518
LeftShoulder1  8.22158 -13.9392 -40.8777
LeftArm  7.74406 -1.26512 -32.8799
LeftForeArm  172.659 -70.1413 -153.542
LeftHand  -0.49637 -2.78711 7.2743
RightShoulder  4.08215 6.74197 33.9539
RightArm  15.4186 -8.0811 35.5153
RightForeArm  137.616 78.5358 124.588
RightHand  -0.295577 9.36832 -2.71622
LeftUpLeg  -12.5159 -0.850733 14.8627
LeftLeg  38.6397 9.3615 8.31349
LeftFoot  -12.162 -0.102836 -24.1116
LeftToes  1.24767e-006 1.47042e-008 1.32732e-009
